# xmcd
#
# Track frame offsets: 
#        150
#        14052
#        25473
#        38501
#        53266
#        64701
#        79702
#        92320
#        103509
#        116678
#        128126
#        137721
#        152351
#        166745
#        180158
#        192244
#
# Disc length: 2719 seconds
#
# Revision: 2
# Processed by: cddbd v1.5.2PL0 Copyright (c) Steve Scherf et al.
# Submitted via: ExactAudioCopy v1.3
#
DISCID=b60a9d10
DTITLE=Heintje - Lieder die man nie vergisst
DYEAR=2003
DGENRE=Schlager
TTITLE0=Du sollst nicht weinen
TTITLE1=Mama
TTITLE2=Wenn ich einst groß bin
TTITLE3=Mamatschi
TTITLE4=Wenn kleine Kinder schlafen gehen
TTITLE5=Schwalbenlied
TTITLE6=Ich bau Dir ein Schloss
TTITLE7=Oma so lieb
TTITLE8=Wenn Du noch eine Mutter hast
TTITLE9=Es kann nicht immer nur die Sonne scheinen
TTITLE10=Weißt Du, wieviel Sternlein stehen
TTITLE11=Deine Tränen sind auch meine
TTITLE12=Heidschi Bumbeitschi
TTITLE13=Alle schönen Dinge dieser Welt
TTITLE14=Guter Mond, Du gehst so stille
TTITLE15=Schneeglöckchen im Februar, Goldregen im Mai
EXTD=
EXTT0=
EXTT1=
EXTT2=
EXTT3=
EXTT4=
EXTT5=
EXTT6=
EXTT7=
EXTT8=
EXTT9=
EXTT10=
EXTT11=
EXTT12=
EXTT13=
EXTT14=
EXTT15=
PLAYORDER=
